<?xml version="1.0" encoding="utf-8"?>
<!-- Generator: Adobe Illustrator 26.4.1, SVG Export Plug-In . SVG Version: 6.00 Build 0)  -->
<svg version="1.1" id="Layer_1" xmlns="http://www.w3.org/2000/svg" xmlns:xlink="http://www.w3.org/1999/xlink" x="0px" y="0px"
	 viewBox="0 0 489 76.8" style="enable-background:new 0 0 489 76.8;" xml:space="preserve">
<style type="text/css">
	.st0{fill:#FFFFFF;}
</style>
<path class="st0" d="M135,13.4h-8.5v31.3h33.6v-7.9h-25L135,13.4L135,13.4z M58.9,28.7H36c-2.4,0-3.8-1.2-3.8-3.4S33.6,22,36,22
	h33.5v-8.3H35.2c-7,0-11.6,5.8-11.6,11.8c0,7.4,4.7,11.8,11.6,11.8h22.9c2.4,0,3.9,1.3,3.9,3.4c0,2.1-1.5,3.4-3.9,3.4H23.7v8.3h35.2
	c7,0,11.6-5.6,11.6-11.6C70.6,33.4,65.9,28.7,58.9,28.7 M118,29H84.1v-7.2H118v-8.2H75.6v38.8h8.5V37.1H118V29z M92.9,52.4H118v23
	h8.5V44.7H92.9V52.4z"/>
</svg>
