<?xml version="1.0" encoding="UTF-8"?>
<svg id="Layer_1" data-name="Layer 1" xmlns="http://www.w3.org/2000/svg" viewBox="0 0 200 97.89">
  <defs>
    <style>
      .cls-1 {
        fill: #fff;
      }
    </style>
  </defs>
  <path class="cls-1" d="M156.51,8.95h-11.11V49.87h43.92v-10.33h-32.68l-.13-30.59h0ZM57.04,28.95H27.1c-3.14,0-4.97-1.57-4.97-4.44s1.83-4.31,4.97-4.31h43.79V9.35H26.06c-9.15,0-15.16,7.58-15.16,15.42,0,9.67,6.14,15.42,15.16,15.42h29.93c3.14,0,5.1,1.7,5.1,4.44s-1.96,4.44-5.1,4.44H11.03v10.85H57.04c9.15,0,15.16-7.32,15.16-15.16,.13-9.67-6.01-15.82-15.16-15.82m77.25,.39h-44.31v-9.41h44.31V9.21h-55.42V59.93h11.11v-20h44.31v-10.59Zm-32.81,30.59h32.81v30.06h11.11V49.87h-43.92v10.06Z"/>
</svg>