<?xml version="1.0" encoding="UTF-8"?>
<svg xmlns="http://www.w3.org/2000/svg" viewBox="0 0 694 342">
  <defs>
    <style>
      .cls-1 {
        stroke: #fff;
        stroke-miterlimit: 10;
        stroke-width: 2px;
      }

      .cls-1, .cls-2 {
        fill: #fff;
      }
    </style>
  </defs>
  <g id="Layer_1" data-name="Layer 1">
    <g>
      <path class="cls-2" d="M259.97,311.54v-20.62h20.63v20.62h-4.12v-16.5h-4.12v16.5h-4.13v-16.5h-4.12v16.5h-4.12Z"/>
      <path class="cls-2" d="M314.17,311.54v-4.12h4l-4-10.31-5.61,14.44h-4.71l8.25-20.62h4.12l8.25,20.62h-10.31Z"/>
      <path class="cls-2" d="M347.75,290.91h20.62v4.12h-8.25v16.5h-4.12v-16.5h-8.25v-4.12Z"/>
      <path class="cls-2" d="M399.89,303.29h-4.12v8.25h-4.12v-20.62h20.62v12.38h-7.28l7.28,8.25h-5.09l-7.28-8.25ZM395.77,295.04v4.12h12.38v-4.12h-12.38Z"/>
      <path class="cls-2" d="M447.91,290.91v20.62h-4.12v-20.62h4.12Z"/>
      <path class="cls-2" d="M500.05,295.04h-16.5v4.12h16.5v12.38h-20.62v-4.12h16.5v-4.12h-16.5v-12.38h20.62v4.12Z"/>
      <path class="cls-2" d="M558.79,311.54h-4.12v-20.62h20.62v12.38h-16.5v8.25ZM571.16,299.16v-4.12h-12.38v4.12h12.38Z"/>
      <path class="cls-2" d="M606.8,303.29h-4.12v8.25h-4.12v-20.62h20.62v12.38h-7.28l7.28,8.25h-5.09l-7.28-8.25ZM602.68,295.04v4.12h12.38v-4.12h-12.38Z"/>
      <path class="cls-2" d="M642.44,311.54v-20.62h20.62v20.62h-20.62ZM658.94,307.41v-12.38h-12.38v12.38h12.38Z"/>
    </g>
    <polygon class="cls-1" points="529.77 310.36 526.26 304.84 522.75 310.36 529.77 310.36"/>
  </g>
  <g id="Layer_5" data-name="Layer 5">
    <polyline class="cls-2" points="277.5 220 320 220 291.51 170.01 209.5 312 159.95 312 281.97 98.04 360.25 236.79 369.42 252.97 367.15 252.98 260.5 253"/>
    <polyline class="cls-2" points="265.95 69.92 161.23 253 111 253 241.5 26.02"/>
    <polygon class="cls-2" points="33 253 163.98 26 188.96 71.56 84.21 253 33 253"/>
  </g>
</svg>