<?xml version="1.0" encoding="UTF-8"?>
<svg xmlns="http://www.w3.org/2000/svg" viewBox="0 0 694 342">
  <defs>
    <style>
      .cls-1 {
        stroke: #000;
        stroke-miterlimit: 10;
        stroke-width: 2px;
      }
    </style>
  </defs>
  <g id="Layer_1" data-name="Layer 1">
    <g>
      <path d="M259.97,311.54v-20.62h20.62v20.62h-4.12v-16.5h-4.12v16.5h-4.12v-16.5h-4.12v16.5h-4.12Z"/>
      <path d="M314.17,311.54v-4.12h4l-4-10.31-5.61,14.44h-4.71l8.25-20.62h4.12l8.25,20.62h-10.31Z"/>
      <path d="M347.75,290.91h20.62v4.12h-8.25v16.5h-4.12v-16.5h-8.25v-4.12Z"/>
      <path d="M399.89,303.29h-4.12v8.25h-4.12v-20.62h20.62v12.38h-7.28l7.28,8.25h-5.09l-7.28-8.25ZM395.77,295.04v4.12h12.38v-4.12h-12.38Z"/>
      <path d="M447.91,290.91v20.62h-4.12v-20.62h4.12Z"/>
      <path d="M500.05,295.04h-16.5v4.12h16.5v12.38h-20.62v-4.12h16.5v-4.12h-16.5v-12.38h20.62v4.12Z"/>
      <path d="M558.79,311.54h-4.12v-20.62h20.62v12.38h-16.5v8.25ZM571.16,299.16v-4.12h-12.38v4.12h12.38Z"/>
      <path d="M606.8,303.29h-4.12v8.25h-4.12v-20.62h20.62v12.38h-7.28l7.28,8.25h-5.09l-7.28-8.25ZM602.68,295.04v4.12h12.38v-4.12h-12.38Z"/>
      <path d="M642.44,311.54v-20.62h20.62v20.62h-20.62ZM658.94,307.41v-12.38h-12.38v12.38h12.38Z"/>
    </g>
    <polygon class="cls-1" points="529.77 310.36 526.26 304.84 522.75 310.36 529.77 310.36"/>
  </g>
  <g id="Layer_3" data-name="Layer 3">
    <polyline points="276.5 222 319 222 290.51 172.01 208.5 314 158.95 314 280.97 100.04 359.25 238.79 368.42 254.97 366.15 254.98 259.5 255"/>
    <polyline points="264.95 71.92 160.23 255 110 255 240.5 28.02"/>
    <polygon points="32 255 162.98 28 187.96 73.56 83.21 255 32 255"/>
  </g>
</svg>